<?xml version="1.0" encoding="UTF-8" standalone="no"?>
<!-- Created with Inkscape (http://www.inkscape.org/) -->

<svg
   width="1944.6489"
   height="475.67371"
   viewBox="0 0 1944.6489 475.67371"
   version="1.1"
   id="svg1"
   sodipodi:docname="BN_logo.svg"
   inkscape:version="1.4.3 (0d15f75, 2025-12-25)"
   xmlns:inkscape="http://www.inkscape.org/namespaces/inkscape"
   xmlns:sodipodi="http://sodipodi.sourceforge.net/DTD/sodipodi-0.dtd"
   xmlns="http://www.w3.org/2000/svg"
   xmlns:svg="http://www.w3.org/2000/svg">
  <sodipodi:namedview
     id="namedview1"
     pagecolor="#505050"
     bordercolor="#eeeeee"
     borderopacity="1"
     inkscape:showpageshadow="0"
     inkscape:pageopacity="0"
     inkscape:pagecheckerboard="0"
     inkscape:deskcolor="#505050"
     inkscape:document-units="px"
     inkscape:zoom="0.38203408"
     inkscape:cx="1183.1405"
     inkscape:cy="477.70607"
     inkscape:window-width="2560"
     inkscape:window-height="1369"
     inkscape:window-x="-8"
     inkscape:window-y="-8"
     inkscape:window-maximized="1"
     inkscape:current-layer="layer1" />
  <defs
     id="defs1" />
  <g
     inkscape:label="Layer 1"
     inkscape:groupmode="layer"
     id="layer1"
     transform="translate(-42.372601,-141.68506)">
    <rect
       style="fill:#0a0a14;fill-opacity:1;stroke:none;stroke-width:41.0538;stroke-linecap:round;stroke-linejoin:round;stroke-dasharray:none"
       id="rect62"
       width="1944.6489"
       height="475.67371"
       x="42.372601"
       y="141.68506" />
    <circle
       style="fill:#ff2d78;fill-opacity:1;stroke:#ffffff;stroke-width:10;stroke-linecap:round;stroke-linejoin:round;stroke-dasharray:none"
       id="circle52"
       cx="261.15152"
       cy="375.27118"
       r="163.80463" />
    <circle
       style="fill:#ffffff;fill-opacity:1;stroke:none;stroke-width:4.77781;stroke-linecap:round;stroke-linejoin:round"
       id="circle53"
       cx="293.65353"
       cy="342.99164"
       r="97.283524" />
    <circle
       style="fill:#ff9500;fill-opacity:1;stroke:#ffffff;stroke-width:10;stroke-linecap:round;stroke-linejoin:round;stroke-dasharray:none"
       id="circle54"
       cx="628.55511"
       cy="375.27118"
       r="163.80463" />
    <circle
       style="fill:#ffffff;fill-opacity:1;stroke:none;stroke-width:4.77781;stroke-linecap:round;stroke-linejoin:round"
       id="circle55"
       cx="614.17676"
       cy="405.73627"
       r="97.283524" />
    <circle
       style="fill:#00e676;fill-opacity:1;stroke:#ffffff;stroke-width:10;stroke-linecap:round;stroke-linejoin:round;stroke-dasharray:none"
       id="circle56"
       cx="998.73499"
       cy="375.27118"
       r="163.80463" />
    <circle
       style="fill:#ffffff;fill-opacity:1;stroke:none;stroke-width:4.77781;stroke-linecap:round;stroke-linejoin:round"
       id="circle57"
       cx="1028.4607"
       cy="376.3078"
       r="97.283524" />
    <text
       xml:space="preserve"
       style="font-style:normal;font-variant:normal;font-weight:bold;font-stretch:normal;font-size:135.214px;font-family:'Helvetica Rounded';-inkscape-font-specification:'Helvetica Rounded, Bold';font-variant-ligatures:normal;font-variant-caps:normal;font-variant-numeric:normal;font-variant-east-asian:normal;letter-spacing:-0.64534px;word-spacing:-0.230478px;writing-mode:lr-tb;direction:ltr;fill:#00e676;fill-opacity:1;stroke:none;stroke-width:18.4383;stroke-linecap:round;stroke-linejoin:round"
       x="1047.1255"
       y="102.29395"
       id="text57"
       transform="rotate(17.117346)"><tspan
         sodipodi:role="line"
         x="1047.1255"
         y="102.29395"
         id="tspan57"
         style="font-style:normal;font-variant:normal;font-weight:bold;font-stretch:normal;font-size:135.214px;font-family:'Helvetica Rounded';-inkscape-font-specification:'Helvetica Rounded, Bold';font-variant-ligatures:normal;font-variant-caps:normal;font-variant-numeric:normal;font-variant-east-asian:normal;fill:#00e676;fill-opacity:1;stroke:none;stroke-width:18.4383">N</tspan></text>
    <text
       xml:space="preserve"
       style="font-style:normal;font-variant:normal;font-weight:bold;font-stretch:normal;font-size:135.214px;font-family:'Helvetica Rounded';-inkscape-font-specification:'Helvetica Rounded, Bold';font-variant-ligatures:normal;font-variant-caps:normal;font-variant-numeric:normal;font-variant-east-asian:normal;letter-spacing:-0.64534px;word-spacing:-0.230478px;writing-mode:lr-tb;direction:ltr;fill:#ff9500;fill-opacity:1;stroke:none;stroke-width:18.4383;stroke-linecap:round;stroke-linejoin:round"
       x="425.56125"
       y="636.92896"
       id="text58"
       transform="rotate(-18.500671)"><tspan
         sodipodi:role="line"
         x="425.56125"
         y="636.92896"
         id="tspan58"
         style="font-style:normal;font-variant:normal;font-weight:bold;font-stretch:normal;font-size:135.214px;font-family:'Helvetica Rounded';-inkscape-font-specification:'Helvetica Rounded, Bold';font-variant-ligatures:normal;font-variant-caps:normal;font-variant-numeric:normal;font-variant-east-asian:normal;fill:#ff9500;fill-opacity:1;stroke:none;stroke-width:18.4383">I</tspan></text>
    <text
       xml:space="preserve"
       style="font-style:normal;font-variant:normal;font-weight:bold;font-stretch:normal;font-size:135.214px;font-family:'Helvetica Rounded';-inkscape-font-specification:'Helvetica Rounded, Bold';font-variant-ligatures:normal;font-variant-caps:normal;font-variant-numeric:normal;font-variant-east-asian:normal;letter-spacing:-0.64534px;word-spacing:-0.230478px;writing-mode:lr-tb;direction:ltr;fill:#ff2d78;fill-opacity:1;stroke:none;stroke-width:18.4383;stroke-linecap:round;stroke-linejoin:round"
       x="338.81302"
       y="272.77896"
       id="text59"
       transform="rotate(17.999347)"><tspan
         sodipodi:role="line"
         x="338.81302"
         y="272.77896"
         id="tspan59"
         style="font-style:normal;font-variant:normal;font-weight:bold;font-stretch:normal;font-size:135.214px;font-family:'Helvetica Rounded';-inkscape-font-specification:'Helvetica Rounded, Bold';font-variant-ligatures:normal;font-variant-caps:normal;font-variant-numeric:normal;font-variant-east-asian:normal;fill:#ff2d78;fill-opacity:1;stroke:none;stroke-width:18.4383">B</tspan></text>
    <circle
       style="fill:#00d4ff;fill-opacity:1;stroke:#ffffff;stroke-width:10;stroke-linecap:round;stroke-linejoin:round;stroke-dasharray:none"
       id="circle59"
       cx="1358.5551"
       cy="375.27118"
       r="163.80463" />
    <circle
       style="fill:#ffffff;fill-opacity:1;stroke:none;stroke-width:4.77781;stroke-linecap:round;stroke-linejoin:round"
       id="circle60"
       cx="1333.6792"
       cy="346.34711"
       r="97.283524" />
    <text
       xml:space="preserve"
       style="font-style:normal;font-variant:normal;font-weight:bold;font-stretch:normal;font-size:135.214px;font-family:'Helvetica Rounded';-inkscape-font-specification:'Helvetica Rounded, Bold';font-variant-ligatures:normal;font-variant-caps:normal;font-variant-numeric:normal;font-variant-east-asian:normal;letter-spacing:-0.64534px;word-spacing:-0.230478px;writing-mode:lr-tb;direction:ltr;fill:#00d4ff;fill-opacity:1;stroke:none;stroke-width:18.4383;stroke-linecap:round;stroke-linejoin:round"
       x="1155.9142"
       y="689.5097"
       id="text60"
       transform="rotate(-13.638868)"><tspan
         sodipodi:role="line"
         x="1155.9142"
         y="689.5097"
         id="tspan60"
         style="font-style:normal;font-variant:normal;font-weight:bold;font-stretch:normal;font-size:135.214px;font-family:'Helvetica Rounded';-inkscape-font-specification:'Helvetica Rounded, Bold';font-variant-ligatures:normal;font-variant-caps:normal;font-variant-numeric:normal;font-variant-east-asian:normal;fill:#00d4ff;fill-opacity:1;stroke:none;stroke-width:18.4383">G</tspan></text>
    <circle
       style="fill:#b44dff;fill-opacity:1;stroke:#ffffff;stroke-width:10;stroke-linecap:round;stroke-linejoin:round;stroke-dasharray:none"
       id="circle61"
       cx="1736.7129"
       cy="375.27118"
       r="163.80463" />
    <circle
       style="fill:#ffffff;fill-opacity:1;stroke:none;stroke-width:4.77781;stroke-linecap:round;stroke-linejoin:round"
       id="circle62"
       cx="1766.4386"
       cy="376.3078"
       r="97.283524" />
    <text
       xml:space="preserve"
       style="font-style:normal;font-variant:normal;font-weight:bold;font-stretch:normal;font-size:135.214px;font-family:'Helvetica Rounded';-inkscape-font-specification:'Helvetica Rounded, Bold';font-variant-ligatures:normal;font-variant-caps:normal;font-variant-numeric:normal;font-variant-east-asian:normal;letter-spacing:-0.64534px;word-spacing:-0.230478px;writing-mode:lr-tb;direction:ltr;fill:#b44dff;fill-opacity:1;stroke:none;stroke-width:18.4383;stroke-linecap:round;stroke-linejoin:round"
       x="1758.0151"
       y="-26.92738"
       id="text62"
       transform="rotate(14.226171)"><tspan
         sodipodi:role="line"
         x="1758.0151"
         y="-26.92738"
         id="tspan62"
         style="font-style:normal;font-variant:normal;font-weight:bold;font-stretch:normal;font-size:135.214px;font-family:'Helvetica Rounded';-inkscape-font-specification:'Helvetica Rounded, Bold';font-variant-ligatures:normal;font-variant-caps:normal;font-variant-numeric:normal;font-variant-east-asian:normal;fill:#b44dff;fill-opacity:1;stroke:none;stroke-width:18.4383">O</tspan></text>
    <text
       xml:space="preserve"
       style="font-style:normal;font-variant:normal;font-weight:bold;font-stretch:normal;font-size:135.214px;font-family:'Helvetica Rounded';-inkscape-font-specification:'Helvetica Rounded, Bold';font-variant-ligatures:normal;font-variant-caps:normal;font-variant-numeric:normal;font-variant-east-asian:normal;letter-spacing:-0.14px;word-spacing:-0.05px;writing-mode:lr-tb;direction:ltr;fill:#00e676;fill-opacity:1;stroke:#ffe100;stroke-width:20;stroke-linecap:round;stroke-linejoin:round;stroke-dasharray:none;stroke-opacity:1"
       x="85.070801"
       y="868.63007"
       id="text64"><tspan
         sodipodi:role="line"
         id="tspan64"
         x="85.070801"
         y="868.63007"
         style="fill:#00e676;fill-opacity:1;stroke:none">BINGO NIGHT</tspan></text>
    <rect
       style="fill:#24244c;fill-opacity:1;stroke:#ffe100;stroke-width:20;stroke-linecap:round;stroke-linejoin:round;stroke-dasharray:none;stroke-opacity:1"
       id="rect65"
       width="647.32898"
       height="366.45947"
       x="2073.8193"
       y="156.3329"
       rx="60" />
    <path
       id="path65"
       style="font-style:normal;font-variant:normal;font-weight:bold;font-stretch:normal;font-size:135.214px;font-family:'Helvetica Rounded';-inkscape-font-specification:'Helvetica Rounded, Bold';font-variant-ligatures:normal;font-variant-caps:normal;font-variant-numeric:normal;font-variant-east-asian:normal;letter-spacing:-0.64534px;word-spacing:-0.230478px;writing-mode:lr-tb;direction:ltr;fill:#00e676;fill-opacity:1;stroke:none;stroke-width:18.4383;stroke-linecap:round;stroke-linejoin:round"
       d="m 2469.4284,288.58682 c -30.1528,0 -50.7051,18.1176 -50.7051,50.9746 0,27.3133 13.1146,50.9766 47.459,50.9766 13.7918,0 22.5805,-5.1376 28.9355,-13.1152 1.3522,8.6537 3.1098,12.5742 9.4649,12.5742 4.462,0 7.5722,-3.3811 7.5722,-7.4375 v -36.6426 c 0,-6.0846 -2.5683,-9.3301 -9.0586,-9.3301 h -27.3144 c -5.5438,0 -8.6524,3.111 -8.6524,8.5196 0,6.7607 5.2734,8.5175 10.0059,8.5175 h 14.4668 c -1.0817,11.8989 -11.3575,19.877 -23.1211,19.877 -18.1187,0 -27.584,-13.2508 -27.584,-32.4512 0,-24.6089 12.0353,-34.6152 27.3145,-34.6152 21.6342,0 17.5769,15.2793 28.5293,15.2793 4.7325,0 10.4121,-2.0272 10.4121,-9.7344 0,-8.6537 -13.1157,-23.3926 -37.7246,-23.3926 z m 105.6035,0 c -31.9105,0 -49.2188,21.2277 -49.2188,49.7578 0,29.4767 14.3336,52.1934 49.2188,52.1934 33.2626,0 49.2168,-24.7449 49.2168,-52.1934 0,-28.5301 -17.3063,-49.7578 -49.2168,-49.7578 z m -290.168,0.541 c -6.7607,0 -11.0879,4.4625 -11.0879,11.0879 v 78.6934 c 0,6.6255 4.3272,11.0879 11.0879,11.0879 6.7607,0 11.0879,-4.4624 11.0879,-11.0879 v -78.6934 c 0,-6.6254 -4.3272,-11.0879 -11.0879,-11.0879 z m 46.6719,0 c -9.465,0 -13.9258,3.786 -13.9258,12.9805 v 77.207 c 0,7.1664 4.0562,10.6817 10.6816,10.6817 6.6255,0 10.6817,-3.5153 10.6817,-10.6817 v -56.1132 h 0.2695 l 38.5371,60.8457 c 2.8395,4.462 5.1369,5.9492 12.168,5.9492 9.3298,0 13.1172,-5.0021 13.1172,-13.791 v -76.3965 c 0,-7.1664 -4.0581,-10.6817 -10.6836,-10.6817 -6.6255,0 -10.6816,3.5153 -10.6817,10.6817 v 57.7363 h -0.2695 l -38.8066,-62.6035 c -2.4339,-4.0564 -6.4906,-5.8145 -11.0879,-5.8145 z m -147.836,1.7579 c -7.8423,0 -12.9804,3.1098 -12.9804,12.9804 v 71.3926 c 0,9.8706 5.1381,12.9805 12.9804,12.9805 h 32.586 c 19.2004,0 35.832,-8.3835 35.832,-28.8008 0,-13.3862 -6.7608,-20.6883 -17.0371,-23.3926 v -0.2695 c 9.1946,-3.6508 13.6563,-11.4941 13.6563,-19.7422 0,-21.499 -19.3349,-25.1484 -35.5606,-25.1484 z m 391.3321,15.5488 c 18.1187,0 27.041,13.2506 27.041,31.9101 0,18.6596 -6.8941,34.3457 -27.041,34.3457 -20.823,0 -27.043,-15.6861 -27.043,-34.3457 0,-18.6595 8.9243,-31.9101 27.043,-31.9101 z m -382.1367,0.6758 h 17.5761 c 8.2481,0 16.0918,2.5706 16.0918,11.9004 0,7.7072 -5.0026,11.8984 -15.414,11.8984 h -18.2539 z m 0,37.8613 h 15.955 c 10.8172,0 21.0918,1.4864 21.0918,13.25 0,11.2228 -9.7349,12.9805 -18.3886,12.9805 h -18.6582 z" />
    <rect
       style="fill:#ff2d78;fill-opacity:1;stroke:none;stroke-width:5.02626;stroke-linecap:round;stroke-linejoin:round;stroke-dasharray:none;stroke-opacity:1"
       id="rect66"
       width="252.328"
       height="59.37664"
       x="2427.4863"
       y="562.53137"
       rx="30" />
    <rect
       style="fill:#00e676;fill-opacity:1;stroke:none;stroke-width:5.02626;stroke-linecap:round;stroke-linejoin:round;stroke-dasharray:none;stroke-opacity:1"
       id="rect67"
       width="252.328"
       height="59.37664"
       x="2130.3923"
       y="562.53137"
       rx="30" />
  </g>
</svg>
